<svg xmlns="http://www.w3.org/2000/svg" xmlns:svg="http://www.w3.org/2000/svg" xmlns:xlink="http://www.w3.org/1999/xlink" id="svg4875" width="19" height="19" version="1.1" viewBox="0 0 19 19"><defs id="defs4877"><linearGradient id="linearGradient4515" x1="2" x2="17" y1="1062.862" y2="1062.862" gradientTransform="matrix(0.98636819,0,0,0.98636819,-1072.2329,-1038.8734)" gradientUnits="userSpaceOnUse" xlink:href="#linearGradient4509"/><linearGradient id="linearGradient4509"><stop id="stop4803" offset="0" stop-color="#de4c19" stop-opacity="1"/><stop id="stop4807" offset="1" stop-color="#e77345" stop-opacity="1"/></linearGradient><linearGradient id="linearGradient7594" x1="-1070.362" x2="-1055.362" y1="9.5" y2="9.5" gradientTransform="matrix(0,1.015736,1.0157346,0,-0.1494914,2142.4505)" gradientUnits="userSpaceOnUse" xlink:href="#linearGradient4521"/><linearGradient id="linearGradient4521"><stop id="stop4523" offset="0" stop-color="#fff" stop-opacity="1"/><stop id="stop4525" offset="1" stop-color="#fff" stop-opacity="0"/></linearGradient></defs><metadata id="metadata4880"/><g id="layer1" transform="translate(287.35715,-522.86219)"><g id="g4541" transform="matrix(0.97894737,0,0,0.97894737,-287.15714,-508.12395)"><circle id="circle4507" cx="-1062.862" cy="9.5" r="7.398" fill="url(#linearGradient4515)" fill-opacity="1" fill-rule="nonzero" stroke="none" stroke-width="8" color="#000" display="inline" enable-background="accumulate" overflow="visible" transform="matrix(0,-1,1,0,0,0)" visibility="visible" style="marker:none"/><rect id="rect4539" width="19" height="19" x="0" y="1053.362" fill="none" stroke="none" stroke-width="1" color="#000" display="inline" enable-background="accumulate" overflow="visible" visibility="visible" style="marker:none"/><path id="circle4531" fill="url(#linearGradient7594)" fill-opacity="1" stroke="none" stroke-width=".5" d="m 2.1446496,1062.8625 c 0,-4.0595 3.2960113,-7.3555 7.355337,-7.3555 4.0593264,0 7.3553374,3.296 7.3553374,7.3555 0,4.0592 -3.296011,7.3552 -7.3553374,7.3552 -4.0593257,0 -7.355337,-3.296 -7.355337,-7.3552 z m 0.4903557,0 c 0,3.7941 3.0706634,6.8648 6.8649813,6.8648 3.7943184,0 6.8649814,-3.0707 6.8649814,-6.8648 0,-3.7945 -3.070663,-6.8652 -6.8649814,-6.8652 -3.7943179,0 -6.8649813,3.0707 -6.8649813,6.8652 z" baseline-shift="baseline" clip-rule="nonzero" color="#000" color-interpolation="sRGB" color-interpolation-filters="linearRGB" color-rendering="auto" direction="ltr" display="inline" enable-background="accumulate" font-family="sans-serif" font-stretch="normal" font-style="normal" font-variant="normal" font-weight="normal" image-rendering="auto" letter-spacing="normal" opacity=".07" overflow="visible" shape-rendering="auto" text-anchor="start" text-decoration="none" text-rendering="auto" visibility="visible" word-spacing="normal" writing-mode="lr-tb" style="line-height:normal;-inkscape-font-specification:sans-serif;text-indent:0;text-align:start;text-decoration-line:none;text-transform:none;block-progression:tb;isolation:auto;mix-blend-mode:normal;marker:none"/></g><path font-stretch="normal" style="line-height:normal;-inkscape-font-specification:sans-serif;text-indent:0;text-align:start;text-decoration-line:none;text-transform:none;block-progression:tb;isolation:auto;mix-blend-mode:normal;marker:none" id="path4535" fill="#32312e" fill-opacity=".706" stroke="none" stroke-width="1" d="M 7.2792969 6.5976562 L 6.5976562 7.2792969 L 6.9394531 7.6210938 L 8.8183594 9.5 L 6.9394531 11.378906 L 6.5976562 11.720703 L 7.2792969 12.404297 L 7.6210938 12.0625 L 9.5 10.183594 L 11.380859 12.0625 L 11.720703 12.404297 L 12.404297 11.720703 L 12.0625 11.378906 L 10.183594 9.5 L 12.0625 7.6210938 L 12.404297 7.2792969 L 11.720703 6.5976562 L 11.380859 6.9375 L 9.5 8.8164062 L 7.6210938 6.9375 L 7.2792969 6.5976562 z" baseline-shift="baseline" clip-rule="nonzero" color="#000" color-interpolation="sRGB" color-interpolation-filters="linearRGB" color-rendering="auto" direction="ltr" display="inline" enable-background="accumulate" font-family="sans-serif" font-style="normal" font-variant="normal" font-weight="normal" image-rendering="auto" letter-spacing="normal" overflow="visible" shape-rendering="auto" text-anchor="start" text-decoration="none" text-rendering="auto" transform="translate(-287.35715,522.86219)" visibility="visible" word-spacing="normal" writing-mode="lr-tb"/></g></svg>