<svg xmlns="http://www.w3.org/2000/svg" xmlns:svg="http://www.w3.org/2000/svg" xmlns:xlink="http://www.w3.org/1999/xlink" id="svg4770" width="19" height="19" version="1.1" viewBox="0 0 19 19"><defs id="defs4772"><linearGradient id="linearGradient5792" x1="2" x2="17" y1="1062.862" y2="1062.862" gradientTransform="matrix(0.98636562,0,0,0.98636562,-1072.2328,-1038.8708)" gradientUnits="userSpaceOnUse" xlink:href="#linearGradient4289"/><linearGradient id="linearGradient4289"><stop id="stop4518" offset="0" stop-color="#77766f" stop-opacity="1"/><stop id="stop4520" offset="1" stop-color="#74736c" stop-opacity="1"/></linearGradient><linearGradient id="linearGradient4297"><stop id="stop4523" offset="0" stop-color="#fff" stop-opacity="1"/><stop id="stop4525" offset="1" stop-color="#000" stop-opacity="1"/></linearGradient><linearGradient id="linearGradient7468" x1="-1070.362" x2="-1055.362" y1="9" y2="9" gradientTransform="matrix(0,-0.98636562,0.98636562,0,0.12951662,14.491544)" gradientUnits="userSpaceOnUse" xlink:href="#linearGradient4297"/><linearGradient id="linearGradient7474" x1="-1070.104" x2="-1055.621" y1="9.5" y2="9.5" gradientTransform="matrix(0,-1.0215905,1.0215905,0,-0.20511947,-22.94764)" gradientUnits="userSpaceOnUse" xlink:href="#linearGradient4297"/></defs><metadata id="metadata4775"/><g id="layer1" transform="translate(287.35714,-522.86219)"><g id="use4377" display="inline" transform="matrix(0.97894737,0,0,0.97894737,-287.15713,-508.12395)"><circle id="circle5784" cx="-1062.862" cy="9.5" r="7.398" fill="url(#linearGradient5792)" fill-opacity="1" fill-rule="nonzero" stroke="none" stroke-width="8" color="#000" display="inline" enable-background="accumulate" overflow="visible" transform="matrix(0,-1,1,0,0,0)" visibility="visible" style="marker:none"/><path id="circle5786" fill="url(#linearGradient7468)" fill-opacity="1" stroke="none" stroke-width="1" d="m 2.1022478,1062.8614 c 0,4.0798 3.3179249,7.3977 7.3977421,7.3977 4.0798171,0 7.3977421,-3.3179 7.3977421,-7.3977 0,-4.0799 -3.317925,-7.3977 -7.3977421,-7.3977 -4.0798172,0 -7.3977421,3.3178 -7.3977421,7.3977 z m 0.9863656,0 c 0,-3.5467 2.8646308,-6.4115 6.4113765,-6.4115 3.5467461,0 6.4113771,2.8648 6.4113771,6.4115 0,3.5467 -2.864631,6.4113 -6.4113771,6.4113 -3.5467457,0 -6.4113765,-2.8646 -6.4113765,-6.4113 z" baseline-shift="baseline" clip-rule="nonzero" color="#000" color-interpolation="sRGB" color-interpolation-filters="linearRGB" color-rendering="auto" direction="ltr" display="inline" enable-background="accumulate" font-family="sans-serif" font-stretch="normal" font-style="normal" font-variant="normal" font-weight="normal" image-rendering="auto" letter-spacing="normal" opacity=".05" overflow="visible" shape-rendering="auto" text-anchor="start" text-decoration="none" text-rendering="auto" visibility="visible" word-spacing="normal" writing-mode="lr-tb" style="line-height:normal;-inkscape-font-specification:sans-serif;text-indent:0;text-align:start;text-decoration-line:none;text-transform:none;block-progression:tb;isolation:auto;mix-blend-mode:normal;marker:none"/><path id="circle5788" fill="url(#linearGradient7474)" fill-opacity="1" stroke="none" stroke-width=".5" d="m 2.1022478,1062.8614 c 0,4.0827 3.3150137,7.3977 7.3977421,7.3977 4.0827281,0 7.3977421,-3.315 7.3977421,-7.3977 0,-4.0827 -3.315014,-7.3977 -7.3977421,-7.3977 -4.0827284,0 -7.3977421,3.315 -7.3977421,7.3977 z m 0.4931828,0 c 0,-3.8162 3.0883667,-6.9045 6.9045593,-6.9045 3.8161921,0 6.9045601,3.0883 6.9045601,6.9045 0,3.8162 -3.088368,6.9045 -6.9045601,6.9045 -3.8161926,0 -6.9045593,-3.0883 -6.9045593,-6.9045 z" baseline-shift="baseline" clip-rule="nonzero" color="#000" color-interpolation="sRGB" color-interpolation-filters="linearRGB" color-rendering="auto" direction="ltr" display="inline" enable-background="accumulate" font-family="sans-serif" font-stretch="normal" font-style="normal" font-variant="normal" font-weight="normal" image-rendering="auto" letter-spacing="normal" opacity=".05" overflow="visible" shape-rendering="auto" text-anchor="start" text-decoration="none" text-rendering="auto" visibility="visible" word-spacing="normal" writing-mode="lr-tb" style="line-height:normal;-inkscape-font-specification:sans-serif;text-indent:0;text-align:start;text-decoration-line:none;text-transform:none;block-progression:tb;isolation:auto;mix-blend-mode:normal;marker:none"/><rect id="rect5790" width="19" height="19" x="0" y="1053.362" fill="none" stroke="none" stroke-width="1" color="#000" display="inline" enable-background="accumulate" overflow="visible" visibility="visible" style="marker:none"/></g><path id="path4391" fill="#3d3c37" fill-opacity="1" stroke="none" stroke-width="1" d="m -275.63579,529.45898 -0.34136,0.34136 -4.44138,4.44141 -0.34135,0.34135 0.68271,0.68269 0.34136,-0.34136 4.44138,-4.44137 0.34135,-0.34136 -0.68271,-0.68272 z" baseline-shift="baseline" clip-rule="nonzero" color="#000" color-interpolation="sRGB" color-interpolation-filters="linearRGB" color-rendering="auto" direction="ltr" display="inline" enable-background="accumulate" font-family="sans-serif" font-stretch="normal" font-style="normal" font-variant="normal" font-weight="normal" image-rendering="auto" letter-spacing="normal" overflow="visible" shape-rendering="auto" text-anchor="start" text-decoration="none" text-rendering="auto" visibility="visible" word-spacing="normal" writing-mode="lr-tb" style="line-height:normal;-inkscape-font-specification:sans-serif;text-indent:0;text-align:start;text-decoration-line:none;text-transform:none;block-progression:tb;isolation:auto;mix-blend-mode:normal;marker:none"/><path id="path4393" fill="#3d3c37" fill-opacity="1" stroke="none" stroke-width="1" d="m -280.07717,529.45898 -0.68271,0.68272 0.34135,0.34136 4.44138,4.44137 0.34136,0.34136 0.68271,-0.68269 -0.34135,-0.34135 -4.44138,-4.44141 -0.34136,-0.34136 z" baseline-shift="baseline" clip-rule="nonzero" color="#000" color-interpolation="sRGB" color-interpolation-filters="linearRGB" color-rendering="auto" direction="ltr" display="inline" enable-background="accumulate" font-family="sans-serif" font-stretch="normal" font-style="normal" font-variant="normal" font-weight="normal" image-rendering="auto" letter-spacing="normal" overflow="visible" shape-rendering="auto" text-anchor="start" text-decoration="none" text-rendering="auto" visibility="visible" word-spacing="normal" writing-mode="lr-tb" style="line-height:normal;-inkscape-font-specification:sans-serif;text-indent:0;text-align:start;text-decoration-line:none;text-transform:none;block-progression:tb;isolation:auto;mix-blend-mode:normal;marker:none"/></g></svg>