<svg xmlns="http://www.w3.org/2000/svg" xmlns:svg="http://www.w3.org/2000/svg" xmlns:xlink="http://www.w3.org/1999/xlink" id="svg4770" width="19" height="19" version="1.1" viewBox="0 0 19 19"><defs id="defs4772"><linearGradient id="linearGradient4552" x1="2" x2="17" y1="1062.862" y2="1062.862" gradientTransform="matrix(0.99703416,0,0,0.99708694,-1072.3345,-1050.2661)" gradientUnits="userSpaceOnUse" xlink:href="#linearGradient4564"/><linearGradient id="linearGradient4564"><stop id="stop4511" offset="0" stop-color="#ec6e44" stop-opacity="1"/><stop id="stop4513" offset="1" stop-color="#e76b41" stop-opacity="1"/></linearGradient><linearGradient id="linearGradient4297"><stop id="stop4523" offset="0" stop-color="#fff" stop-opacity="1"/><stop id="stop4525" offset="1" stop-color="#000" stop-opacity="1"/></linearGradient><linearGradient id="linearGradient7528" x1="-1070.362" x2="-1055.362" y1="9" y2="9" gradientTransform="matrix(0,-0.99703416,0.99708694,0,0.02766374,3.1527327)" gradientUnits="userSpaceOnUse" xlink:href="#linearGradient4297"/><linearGradient id="linearGradient7534" x1="-1070.104" x2="-1055.621" y1="9.5" y2="9.5" gradientTransform="matrix(0,-1.0326401,1.0326948,0,-0.31060969,-34.691394)" gradientUnits="userSpaceOnUse" xlink:href="#linearGradient4297"/></defs><metadata id="metadata4775"/><g id="layer1" transform="translate(287.35714,-522.86219)"><g id="g4540" display="inline" transform="matrix(0.97894737,0,0,0.97894737,-287.15713,-508.12395)"><ellipse id="circle4544" cx="-1062.862" cy="9.5" fill="url(#linearGradient4552)" fill-opacity="1" fill-rule="nonzero" stroke="none" stroke-width="8" color="#000" display="inline" enable-background="accumulate" overflow="visible" rx="7.478" ry="7.478" transform="matrix(0,-1,1,0,0,0)" visibility="visible" style="marker:none"/><path id="circle4546" fill="url(#linearGradient7528)" fill-opacity="1" stroke="none" stroke-width="1" d="m 2.0218377,1062.8618 c 0,4.1239 3.3539891,7.4779 7.4781521,7.4779 4.1241642,0 7.4781522,-3.354 7.4781522,-7.4779 0,-4.124 -3.353988,-7.4778 -7.4781522,-7.4778 -4.124163,0 -7.4781521,3.3538 -7.4781521,7.4778 z m 0.9970869,0 c 0,-3.585 2.895768,-6.4807 6.4810652,-6.4807 3.5852982,0 6.4810652,2.8957 6.4810652,6.4807 0,3.5851 -2.895767,6.4806 -6.4810652,6.4806 -3.5852972,0 -6.4810652,-2.8955 -6.4810652,-6.4806 z" baseline-shift="baseline" clip-rule="nonzero" color="#000" color-interpolation="sRGB" color-interpolation-filters="linearRGB" color-rendering="auto" direction="ltr" display="inline" enable-background="accumulate" font-family="sans-serif" font-stretch="normal" font-style="normal" font-variant="normal" font-weight="normal" image-rendering="auto" letter-spacing="normal" opacity=".05" overflow="visible" shape-rendering="auto" text-anchor="start" text-decoration="none" text-rendering="auto" visibility="visible" word-spacing="normal" writing-mode="lr-tb" style="line-height:normal;-inkscape-font-specification:sans-serif;text-indent:0;text-align:start;text-decoration-line:none;text-transform:none;block-progression:tb;isolation:auto;mix-blend-mode:normal;marker:none"/><path id="circle4548" fill="url(#linearGradient7534)" fill-opacity="1" stroke="none" stroke-width=".5" d="m 2.0218377,1062.8618 c 0,4.1269 3.3510463,7.4779 7.4781521,7.4779 4.1271062,0 7.4781522,-3.351 7.4781522,-7.4779 0,-4.1268 -3.351046,-7.4778 -7.4781522,-7.4778 -4.1271058,0 -7.4781521,3.351 -7.4781521,7.4778 z m 0.4985434,0 c 0,-3.8573 3.1219359,-6.9793 6.9796087,-6.9793 3.8576722,0 6.9796092,3.122 6.9796092,6.9793 0,3.8576 -3.121937,6.9792 -6.9796092,6.9792 -3.8576728,0 -6.9796087,-3.1216 -6.9796087,-6.9792 z" baseline-shift="baseline" clip-rule="nonzero" color="#000" color-interpolation="sRGB" color-interpolation-filters="linearRGB" color-rendering="auto" direction="ltr" display="inline" enable-background="accumulate" font-family="sans-serif" font-stretch="normal" font-style="normal" font-variant="normal" font-weight="normal" image-rendering="auto" letter-spacing="normal" opacity=".05" overflow="visible" shape-rendering="auto" text-anchor="start" text-decoration="none" text-rendering="auto" visibility="visible" word-spacing="normal" writing-mode="lr-tb" style="line-height:normal;-inkscape-font-specification:sans-serif;text-indent:0;text-align:start;text-decoration-line:none;text-transform:none;block-progression:tb;isolation:auto;mix-blend-mode:normal;marker:none"/><rect id="rect4550" width="19" height="19" x="0" y="1053.362" fill="none" stroke="none" stroke-width="1" color="#000" display="inline" enable-background="accumulate" overflow="visible" visibility="visible" style="marker:none"/></g><path id="path4566" fill="#32312e" fill-opacity="1" stroke="none" stroke-width="1" d="m -275.61165,529.42796 -0.34508,0.34503 -4.48964,4.48947 -0.34507,0.34504 0.69014,0.69005 0.34507,-0.34504 4.48965,-4.48941 0.34507,-0.34505 -0.69014,-0.69009 z" baseline-shift="baseline" clip-rule="nonzero" color="#000" color-interpolation="sRGB" color-interpolation-filters="linearRGB" color-rendering="auto" direction="ltr" display="inline" enable-background="accumulate" font-family="sans-serif" font-stretch="normal" font-style="normal" font-variant="normal" font-weight="normal" image-rendering="auto" letter-spacing="normal" overflow="visible" shape-rendering="auto" text-anchor="start" text-decoration="none" text-rendering="auto" visibility="visible" word-spacing="normal" writing-mode="lr-tb" style="line-height:normal;-inkscape-font-specification:sans-serif;text-indent:0;text-align:start;text-decoration-line:none;text-transform:none;block-progression:tb;isolation:auto;mix-blend-mode:normal;marker:none"/><path id="path4568" fill="#32312e" fill-opacity="1" stroke="none" stroke-width="1" d="m -280.1013,529.42796 -0.69014,0.69009 0.34507,0.34505 4.48964,4.48941 0.34508,0.34504 0.69014,-0.69005 -0.34507,-0.34504 -4.48965,-4.48947 -0.34507,-0.34503 z" baseline-shift="baseline" clip-rule="nonzero" color="#000" color-interpolation="sRGB" color-interpolation-filters="linearRGB" color-rendering="auto" direction="ltr" display="inline" enable-background="accumulate" font-family="sans-serif" font-stretch="normal" font-style="normal" font-variant="normal" font-weight="normal" image-rendering="auto" letter-spacing="normal" overflow="visible" shape-rendering="auto" text-anchor="start" text-decoration="none" text-rendering="auto" visibility="visible" word-spacing="normal" writing-mode="lr-tb" style="line-height:normal;-inkscape-font-specification:sans-serif;text-indent:0;text-align:start;text-decoration-line:none;text-transform:none;block-progression:tb;isolation:auto;mix-blend-mode:normal;marker:none"/></g></svg>