<svg xmlns="http://www.w3.org/2000/svg" xmlns:svg="http://www.w3.org/2000/svg" id="svg4770" width="19" height="19" version="1.1" viewBox="0 0 19 19"><metadata id="metadata4775"/><g id="layer1" transform="translate(287.35714,-522.86219)"><g id="g4137" display="inline" transform="translate(-287.35713,-530.49999)"><circle id="circle4141" cx="-1062.862" cy="9.5" r="7.242" fill="#f17250" fill-opacity="1" fill-rule="nonzero" stroke="none" stroke-width="8" color="#000" display="inline" enable-background="accumulate" overflow="visible" transform="matrix(0,-1,1,0,0,0)" visibility="visible" style="marker:none"/><rect id="rect4147" width="18.6" height="18.6" x=".2" y="1053.562" fill="none" stroke="none" stroke-width="1" color="#000" display="inline" enable-background="accumulate" overflow="visible" visibility="visible" style="marker:none"/></g><path font-stretch="normal" style="line-height:normal;-inkscape-font-specification:sans-serif;text-indent:0;text-align:start;text-decoration-line:none;text-transform:none;block-progression:tb;isolation:auto;mix-blend-mode:normal;marker:none" id="path4167" fill="#303030" fill-opacity=".706" stroke="none" stroke-width="1" d="M 7.2792969 6.5957031 L 6.5976562 7.2792969 L 6.9394531 7.6210938 L 8.8183594 9.5 L 6.9394531 11.378906 L 6.5976562 11.720703 L 7.2792969 12.404297 L 7.6210938 12.0625 L 9.5 10.183594 L 11.380859 12.0625 L 11.720703 12.404297 L 12.404297 11.720703 L 12.0625 11.378906 L 10.183594 9.5 L 12.0625 7.6210938 L 12.404297 7.2792969 L 11.720703 6.5957031 L 11.380859 6.9375 L 9.5 8.8164062 L 7.6210938 6.9375 L 7.2792969 6.5957031 z" baseline-shift="baseline" clip-rule="nonzero" color="#000" color-interpolation="sRGB" color-interpolation-filters="linearRGB" color-rendering="auto" direction="ltr" display="inline" enable-background="accumulate" font-family="sans-serif" font-style="normal" font-variant="normal" font-weight="normal" image-rendering="auto" letter-spacing="normal" overflow="visible" shape-rendering="auto" text-anchor="start" text-decoration="none" text-rendering="auto" transform="translate(-287.35714,522.86219)" visibility="visible" word-spacing="normal" writing-mode="lr-tb"/></g></svg>