<svg xmlns="http://www.w3.org/2000/svg" xmlns:svg="http://www.w3.org/2000/svg" xmlns:xlink="http://www.w3.org/1999/xlink" id="svg4875" width="19" height="19" version="1.1" viewBox="0 0 19 19"><defs id="defs4877"><linearGradient id="linearGradient4795" x1="2" x2="17" y1="1062.862" y2="1062.862" gradientTransform="matrix(0.96560259,0,0,0.96560259,-1072.0352,-1016.8025)" gradientUnits="userSpaceOnUse" xlink:href="#linearGradient4809"/><linearGradient id="linearGradient4809"><stop id="stop4511" offset="0" stop-color="#717171" stop-opacity="1"/><stop id="stop4513" offset="1" stop-color="#8b8b8b" stop-opacity="1"/></linearGradient><linearGradient id="linearGradient7594" x1="-1070.362" x2="-1055.362" y1="9.5" y2="9.5" gradientTransform="matrix(0,0.99435205,0.99435066,0,0.05365622,2119.7222)" gradientUnits="userSpaceOnUse" xlink:href="#linearGradient4521"/><linearGradient id="linearGradient4521"><stop id="stop4523" offset="0" stop-color="#fff" stop-opacity="1"/><stop id="stop4525" offset="1" stop-color="#fff" stop-opacity="0"/></linearGradient></defs><metadata id="metadata4880"/><g id="layer1" transform="translate(287.35715,-522.86219)"><g id="g4783" transform="translate(-287.35714,-530.49999)"><circle id="circle4787" cx="-1062.862" cy="9.5" r="7.242" fill="url(#linearGradient4795)" fill-opacity="1" fill-rule="nonzero" stroke="none" stroke-width="8" color="#000" display="inline" enable-background="accumulate" overflow="visible" transform="matrix(0,-1,1,0,0,0)" visibility="visible" style="marker:none"/><rect id="rect4793" width="18.6" height="18.6" x=".2" y="1053.562" fill="none" stroke="none" stroke-width="1" color="#000" display="inline" enable-background="accumulate" overflow="visible" visibility="visible" style="marker:none"/><path id="circle4531" fill="url(#linearGradient7594)" fill-opacity="1" stroke="none" stroke-width=".5" d="m 2.2994996,1062.8623 c 0,-3.974 3.2266217,-7.2006 7.2004881,-7.2006 3.9738673,0 7.2004883,3.2266 7.2004883,7.2006 0,3.9738 -3.226621,7.2004 -7.2004883,7.2004 -3.9738664,0 -7.2004881,-3.2266 -7.2004881,-7.2004 z m 0.4800327,0 c 0,3.7143 3.0060178,6.7203 6.7204554,6.7203 3.7144373,0 6.7204563,-3.006 6.7204563,-6.7203 0,-3.7146 -3.006019,-6.7206 -6.7204563,-6.7206 -3.7144376,0 -6.7204554,3.006 -6.7204554,6.7206 z" baseline-shift="baseline" clip-rule="nonzero" color="#000" color-interpolation="sRGB" color-interpolation-filters="linearRGB" color-rendering="auto" direction="ltr" display="inline" enable-background="accumulate" font-family="sans-serif" font-stretch="normal" font-style="normal" font-variant="normal" font-weight="normal" image-rendering="auto" letter-spacing="normal" opacity=".07" overflow="visible" shape-rendering="auto" text-anchor="start" text-decoration="none" text-rendering="auto" visibility="visible" word-spacing="normal" writing-mode="lr-tb" style="line-height:normal;-inkscape-font-specification:sans-serif;text-indent:0;text-align:start;text-decoration-line:none;text-transform:none;block-progression:tb;isolation:auto;mix-blend-mode:normal;marker:none"/></g><path id="rect4811" fill="#3a3a3a" fill-opacity="1" stroke="none" stroke-width="1" d="m -281.23703,528.98155 0,0.48278 0,6.27641 6.75922,0 0,-6.75919 -6.75922,0 z m 0.96561,0.96558 4.828,0 0,4.82804 -4.828,0 0,-4.82804 z" baseline-shift="baseline" clip-rule="nonzero" color="#000" color-interpolation="sRGB" color-interpolation-filters="linearRGB" color-rendering="auto" direction="ltr" display="inline" enable-background="accumulate" font-family="sans-serif" font-stretch="normal" font-style="normal" font-variant="normal" font-weight="normal" image-rendering="auto" letter-spacing="normal" overflow="visible" shape-rendering="auto" text-anchor="start" text-decoration="none" text-rendering="auto" visibility="visible" word-spacing="normal" writing-mode="lr-tb" style="line-height:normal;-inkscape-font-specification:sans-serif;text-indent:0;text-align:start;text-decoration-line:none;text-transform:none;block-progression:tb;isolation:auto;mix-blend-mode:normal;marker:none"/></g></svg>