<svg xmlns="http://www.w3.org/2000/svg" xmlns:svg="http://www.w3.org/2000/svg" xmlns:xlink="http://www.w3.org/1999/xlink" id="svg4770" width="19" height="19" version="1.1" viewBox="0 0 19 19"><defs id="defs4772"><linearGradient id="linearGradient5936" x1="2" x2="17" y1="1062.862" y2="1062.862" gradientTransform="matrix(0.98631511,0,0,0.98636558,-1072.2326,-1038.8707)" gradientUnits="userSpaceOnUse" xlink:href="#linearGradient4289"/><linearGradient id="linearGradient4289"><stop id="stop4518" offset="0" stop-color="#737373" stop-opacity="1"/><stop id="stop4520" offset="1" stop-color="#707070" stop-opacity="1"/></linearGradient><linearGradient id="linearGradient4297"><stop id="stop4523" offset="0" stop-color="#fff" stop-opacity="1"/><stop id="stop4525" offset="1" stop-color="#000" stop-opacity="1"/></linearGradient><linearGradient id="linearGradient7531" x1="-1070.362" x2="-1055.362" y1="9" y2="9" gradientTransform="matrix(0,-0.98631511,0.98636558,0,0.12951664,14.545568)" gradientUnits="userSpaceOnUse" xlink:href="#linearGradient4297"/><linearGradient id="linearGradient7537" x1="-1070.104" x2="-1055.621" y1="9.5" y2="9.5" gradientTransform="matrix(0,-1.0215382,1.0215905,0,-0.20511945,-22.8917)" gradientUnits="userSpaceOnUse" xlink:href="#linearGradient4297"/></defs><metadata id="metadata4775"/><g id="layer1" transform="translate(287.35714,-522.86219)"><g id="use4323" display="inline" transform="matrix(0.97894737,0,0,0.97894737,-287.15713,-508.12395)"><ellipse id="circle5928" cx="-1062.862" cy="9.5" fill="url(#linearGradient5936)" fill-opacity="1" fill-rule="nonzero" stroke="none" stroke-width="8" color="#000" display="inline" enable-background="accumulate" overflow="visible" rx="7.397" ry="7.398" transform="matrix(0,-1,1,0,0,0)" visibility="visible" style="marker:none"/><path id="circle5930" fill="url(#linearGradient7531)" fill-opacity="1" stroke="none" stroke-width="1" d="m 2.1022478,1062.8617 c 0,4.0795 3.3179247,7.3975 7.3977419,7.3975 4.0798183,0 7.3977423,-3.318 7.3977423,-7.3975 0,-4.0795 -3.317924,-7.3973 -7.3977423,-7.3973 -4.0798172,0 -7.3977419,3.3178 -7.3977419,7.3973 z m 0.9863656,0 c 0,-3.5464 2.8646306,-6.4111 6.4113763,-6.4111 3.5467463,0 6.4113763,2.8647 6.4113763,6.4111 0,3.5465 -2.86463,6.411 -6.4113763,6.411 -3.5467457,0 -6.4113763,-2.8645 -6.4113763,-6.411 z" baseline-shift="baseline" clip-rule="nonzero" color="#000" color-interpolation="sRGB" color-interpolation-filters="linearRGB" color-rendering="auto" direction="ltr" display="inline" enable-background="accumulate" font-family="sans-serif" font-stretch="normal" font-style="normal" font-variant="normal" font-weight="normal" image-rendering="auto" letter-spacing="normal" opacity=".05" overflow="visible" shape-rendering="auto" text-anchor="start" text-decoration="none" text-rendering="auto" visibility="visible" word-spacing="normal" writing-mode="lr-tb" style="line-height:normal;-inkscape-font-specification:sans-serif;text-indent:0;text-align:start;text-decoration-line:none;text-transform:none;block-progression:tb;isolation:auto;mix-blend-mode:normal;marker:none"/><path id="circle5932" fill="url(#linearGradient7537)" fill-opacity="1" stroke="none" stroke-width=".5" d="m 2.1022478,1062.8617 c 0,4.0825 3.3150135,7.3975 7.3977419,7.3975 4.0827283,0 7.3977423,-3.315 7.3977423,-7.3975 0,-4.0825 -3.315014,-7.3973 -7.3977423,-7.3973 -4.0827284,0 -7.3977419,3.3148 -7.3977419,7.3973 z m 0.4931828,0 c 0,-3.8159 3.0883666,-6.9042 6.9045591,-6.9042 3.8161923,0 6.9045593,3.0883 6.9045593,6.9042 0,3.8161 -3.088367,6.9042 -6.9045593,6.9042 -3.8161925,0 -6.9045591,-3.0881 -6.9045591,-6.9042 z" baseline-shift="baseline" clip-rule="nonzero" color="#000" color-interpolation="sRGB" color-interpolation-filters="linearRGB" color-rendering="auto" direction="ltr" display="inline" enable-background="accumulate" font-family="sans-serif" font-stretch="normal" font-style="normal" font-variant="normal" font-weight="normal" image-rendering="auto" letter-spacing="normal" opacity=".05" overflow="visible" shape-rendering="auto" text-anchor="start" text-decoration="none" text-rendering="auto" visibility="visible" word-spacing="normal" writing-mode="lr-tb" style="line-height:normal;-inkscape-font-specification:sans-serif;text-indent:0;text-align:start;text-decoration-line:none;text-transform:none;block-progression:tb;isolation:auto;mix-blend-mode:normal;marker:none"/><rect id="rect5934" width="19" height="19" x="0" y="1053.362" fill="none" stroke="none" stroke-width="1" color="#000" display="inline" enable-background="accumulate" overflow="visible" visibility="visible" style="marker:none"/></g><path id="rect4329" fill="#3a3a3a" fill-opacity="1" stroke="none" stroke-width="1" d="m -281.23703,529.94791 0,0.48279 0,4.345 6.75921,0 0,-4.82779 -6.75921,0 z m 0.96562,0.96557 4.82797,0 0,2.89665 -4.82797,0 0,-2.89665 z" baseline-shift="baseline" clip-rule="nonzero" color="#000" color-interpolation="sRGB" color-interpolation-filters="linearRGB" color-rendering="auto" direction="ltr" display="inline" enable-background="accumulate" font-family="sans-serif" font-stretch="normal" font-style="normal" font-variant="normal" font-weight="normal" image-rendering="auto" letter-spacing="normal" overflow="visible" shape-rendering="auto" text-anchor="start" text-decoration="none" text-rendering="auto" visibility="visible" word-spacing="normal" writing-mode="lr-tb" style="line-height:normal;-inkscape-font-specification:sans-serif;text-indent:0;text-align:start;text-decoration-line:none;text-transform:none;block-progression:tb;isolation:auto;mix-blend-mode:normal;marker:none"/></g></svg>